# xmcd
#
# Track frame offsets:
#	150
#	11445
#	25702
#	40267
#	51287
#	60385
#	72537
#	84590
#	96400
#	107107
#
# Disc length: 1605 seconds
#
# Revision: 0
# Processed by: cddbd v1.4PL0 Copyright (c) Steve Scherf et al.
# Submitted via: dBpowerAMP V4.0
#
DISCID=7f06430a
DTITLE=Various Artist - Cajun Hits Vol 1
DYEAR=1997
DGENRE=Country
TTITLE0=Donald Thibodeaux - D&W Special
TTITLE1=Gervis Standford - Road of Broken Hearts
TTITLE2=Lennis and Gervis Soileau - I Dream Last Night
TTITLE3=Lennis and Gervis Soileau - Unknown Two Step
TTITLE4=Joh Theriot - Hey Mom
TTITLE5=Les Cadjins - I'd Like To See You Tonite
TTITLE6=Lennis and Gervis Soileau - Musician Waltz
TTITLE7=Bayou Teche - Flower of My Heart
TTITLE8=Ernest Thibodeaux - Pine Grove Special
TTITLE9=Lulu Cormier - Cajun Boogie
EXTD=
EXTT0=
EXTT1=
EXTT2=
EXTT3=
EXTT4=
EXTT5=
EXTT6=
EXTT7=
EXTT8=
EXTT9=
PLAYORDER=
